Genre:Fantasy | Romance | Thriller
Language:English
IMDb:http://www.imdb.com/title/tt1325004/
Video Source:DvD Scr:Thanks.
Subtitles: ROMANA

General
Complete name : The.Twilight.Saga.Eclipse.2010.DvDscr.Xvid.FEEL-FREE
Format : AVI
Format/Info : Audio Video Interleave
File size : 1.54 GiB
Duration : 1h 53mn
Overall bit rate : 1 948 Kbps
Writing library : VirtualDub build 32817/release

Video
ID : 0
Format : MPEG-4 Visual
Format profile : AdvancedSimple@L5
Format settings, BVOP : Yes
Format settings, QPel : No
Format settings, GMC : No warppoints
Format settings, Matrix : Default (H.263)
Muxing mode : Packed bitstream
Codec ID : XVID
Codec ID/Hint : XviD
Duration : 1h 53mn
Bit rate : 1 747 Kbps
Width : 688 pixels
Height : 288 pixels
Display aspect ratio : 2.35:1
Frame rate : 23.976 fps
Resolution : 24 bits
Colorimetry : 4:2:0
Scan type : Progressive
Bits/(Pixel*Frame) : 0.368
Stream size : 1.38 GiB (90%)
Writing library : XviD 1.3.0.dev55

Audio
ID : 1
Format : AC-3
Format/Info : Audio Coding 3
Codec ID : 2000
Duration : 1h 53mn
Bit rate mode : Constant
Bit rate : 192 Kbps
Channel(s) : 2 channels
Channel positions : L R
Sampling rate : 48.0 KHz
Stream size : 156 MiB (10%)
Alignment : Aligned on interleaves
Interleave, duration : 42 ms (1.00 video frame)
Interleave, preload duration : 512 ms

Plot:
As a string of mysterious killings grips Seattle, Bella, whose high school graduation is fast approaching, is forced to choose between her love for vampire Edward and her friendship with werewolf Jacob


Screenshots:
 
http://www.starshare.ro/bitbucket/The.Twilight.Saga.Eclipse.2010.DvDscr.Xvid.FEEL-FREE.avi_snapshot_01.39.17_%5B2010.08.20_05.13.53%5D.jpg
 
http://www.starshare.ro/bitbucket/The.Twilight.Saga.Eclipse.2010.DvDscr.Xvid.FEEL-FREE.avi_snapshot_00.04.01_%5B2010.08.20_05.14.09%5D.jpg
 
http://www.starshare.ro/bitbucket/The.Twilight.Saga.Eclipse.2010.DvDscr.Xvid.FEEL-FREE.avi_snapshot_00.50.37_%5B2010.08.20_05.14.17%5D.jpg
 
http://www.starshare.ro/bitbucket/The.Twilight.Saga.Eclipse.2010.DvDscr.Xvid.FEEL-FREE.avi_snapshot_01.39.21_%5B2010.08.20_05.13.57%5D.jpg




 
http://thepiratebay.org/user/hiest